<svg width="56" height="60" viewBox="0 0 56 60" fill="none" xmlns="http://www.w3.org/2000/svg">
<g clip-path="url(#clip0)">
<path d="M28.6038 2C27.9776 2 27.2736 2.6792 27.2736 3.34269V7.37075C27.2632 8.07881 27.8997 8.73176 28.6038 8.73176C29.3078 8.73176 29.9443 8.07877 29.934 7.37075V3.34269C29.934 2.57957 29.2299 2 28.6038 2ZM46.5613 10.0145C46.5068 10.0171 46.4496 10.025 46.395 10.0355C46.1041 10.0774 45.8287 10.2217 45.6261 10.4341L42.9657 13.1195C42.4539 13.6099 42.4409 14.5304 42.9371 15.0365C43.4333 15.5426 44.3452 15.54 44.8363 15.0286L47.4967 12.3432C47.8916 11.9761 48.0293 11.3546 47.8266 10.8537C47.624 10.3502 47.0965 10.0014 46.5614 10.0145L46.5613 10.0145ZM10.5006 10.0355C9.99656 10.0853 9.53672 10.4498 9.37304 10.9323C9.20676 11.4149 9.34706 11.9892 9.71078 12.3432L12.3712 15.0286C12.8622 15.54 13.7741 15.5426 14.2703 15.0365C14.7666 14.5303 14.7536 13.6099 14.2418 13.1194L11.5814 10.4341C11.3034 10.1482 10.8955 9.99612 10.5006 10.0355L10.5006 10.0355ZM28.6038 14.0845C21.168 14.0845 13.9717 20.2026 13.9717 28.854C13.9717 39.4096 21.0277 40.9698 21.8697 47.6517H35.3379C36.1796 40.9697 43.2358 39.4096 43.2358 28.854C43.2358 20.2024 36.0395 14.0845 28.6038 14.0845ZM47.8915 29.5254C47.8915 30.1574 48.5228 30.8681 49.2217 30.8681H53.8774C54.5788 30.8786 55.2075 30.2361 55.2075 29.5254C55.2075 28.8147 54.5788 28.1722 53.8774 28.1827H49.2217C48.4553 28.1827 47.8915 28.8934 47.8915 29.5254ZM2 29.5254C2 30.1574 2.63391 30.8681 3.33019 30.8681H7.32075C8.02223 30.8786 8.6691 30.2361 8.6691 29.5254C8.6691 28.8147 8.02219 28.1722 7.32075 28.1827H3.33019C2.56639 28.1827 2 28.8934 2 29.5254ZM14.138 42.575C13.795 42.5881 13.4599 42.7428 13.2235 42.9946L9.79411 46.4352C9.2823 46.9256 9.26931 47.8461 9.76553 48.3522C10.2617 48.8583 11.1737 48.8557 11.6647 48.3443L15.0941 44.8828C15.476 44.5104 15.6007 43.8941 15.3954 43.3985C15.1928 42.9055 14.668 42.5619 14.138 42.575L14.138 42.575ZM42.9033 42.575C42.3993 42.6248 41.9394 42.9893 41.7758 43.4718C41.6095 43.9543 41.7498 44.5286 42.1135 44.8827L45.5429 48.3443C46.0339 48.8557 46.9458 48.8583 47.442 48.3522C47.9383 47.846 47.9253 46.9256 47.4135 46.4351L43.9841 42.9945C43.7399 42.7323 43.384 42.5775 43.028 42.5749C42.9865 42.5723 42.9449 42.5723 42.9033 42.5749L42.9033 42.575ZM21.9528 50.337V57.0505C21.9528 58.5925 23.2103 59.7358 24.6132 59.7358H32.5943C33.9973 59.7358 35.2547 58.5925 35.2547 57.0505V50.337H21.9528Z" fill="#cf2900"/>
<path d="M26.6038 0C25.9776 0 25.2736 0.679198 25.2736 1.34269V5.37075C25.2632 6.07881 25.8997 6.73176 26.6038 6.73176C27.3078 6.73176 27.9443 6.07877 27.934 5.37075V1.34269C27.934 0.579571 27.2299 0 26.6038 0ZM44.5613 8.0145C44.5068 8.01712 44.4496 8.02499 44.395 8.03548C44.1041 8.07744 43.8287 8.22167 43.6261 8.43409L40.9657 11.1195C40.4539 11.6099 40.4409 12.5304 40.9371 13.0365C41.4333 13.5426 42.3452 13.54 42.8363 13.0286L45.4967 10.3432C45.8916 9.9761 46.0293 9.35456 45.8266 8.85367C45.624 8.35016 45.0965 8.0014 44.5614 8.01449L44.5613 8.0145ZM8.50057 8.03548C7.99656 8.08531 7.53672 8.44983 7.37304 8.93233C7.20676 9.41485 7.34706 9.98916 7.71078 10.3432L10.3712 13.0286C10.8622 13.54 11.7741 13.5426 12.2703 13.0365C12.7666 12.5303 12.7536 11.6099 12.2418 11.1194L9.58138 8.43407C9.30339 8.14822 8.89553 7.99612 8.5006 8.03546L8.50057 8.03548ZM26.6038 12.0845C19.168 12.0845 11.9717 18.2026 11.9717 26.854C11.9717 37.4096 19.0277 38.9698 19.8697 45.6517H33.3379C34.1796 38.9697 41.2358 37.4096 41.2358 26.854C41.2358 18.2024 34.0395 12.0845 26.6038 12.0845ZM45.8915 27.5254C45.8915 28.1574 46.5228 28.8681 47.2217 28.8681H51.8774C52.5788 28.8786 53.2075 28.2361 53.2075 27.5254C53.2075 26.8147 52.5788 26.1722 51.8774 26.1827H47.2217C46.4553 26.1827 45.8915 26.8934 45.8915 27.5254ZM0 27.5254C0 28.1574 0.633915 28.8681 1.33019 28.8681H5.32075C6.02223 28.8786 6.6691 28.2361 6.6691 27.5254C6.6691 26.8147 6.02219 26.1722 5.32075 26.1827H1.33019C0.566394 26.1827 0 26.8934 0 27.5254ZM12.138 40.575C11.795 40.5881 11.4599 40.7428 11.2235 40.9946L7.79411 44.4352C7.2823 44.9256 7.26931 45.8461 7.76553 46.3522C8.26175 46.8583 9.17367 46.8557 9.66471 46.3443L13.0941 42.8828C13.476 42.5104 13.6007 41.8941 13.3954 41.3985C13.1928 40.9055 12.668 40.5619 12.138 40.575L12.138 40.575ZM40.9033 40.575C40.3993 40.6248 39.9394 40.9893 39.7758 41.4718C39.6095 41.9543 39.7498 42.5286 40.1135 42.8827L43.5429 46.3443C44.0339 46.8557 44.9458 46.8583 45.442 46.3522C45.9383 45.846 45.9253 44.9256 45.4135 44.4351L41.9841 40.9945C41.7399 40.7323 41.384 40.5775 41.028 40.5749C40.9865 40.5723 40.9449 40.5723 40.9033 40.5749L40.9033 40.575ZM19.9528 48.337V55.0505C19.9528 56.5925 21.2103 57.7358 22.6132 57.7358H30.5943C31.9973 57.7358 33.2547 56.5925 33.2547 55.0505V48.337H19.9528Z" fill="#ff6600"/>
</g>
<defs>
<clipPath id="clip0">
<rect width="56" height="60" fill="white"/>
</clipPath>
</defs>
</svg>
