<svg width="46" height="60" viewBox="0 0 46 60" fill="none" xmlns="http://www.w3.org/2000/svg">
<g clip-path="url(#clip0)">
<path d="M16.4737 28.5843L17.3902 28.095L19.2853 31.8827L22.5241 27.1164L16.1709 17.5243L6.45721 2.67635C6.02999 2.00327 5.05142 1.75985 4.38078 2.18707C2.30435 3.40908 1.44748 5.91516 2.30435 8.11331L9.33088 26.0756C10.3643 28.9492 13.7869 30.1115 16.4741 28.584L16.4737 28.5843Z" fill="#cf2900"/>
<path d="M28.3288 35.9163L24.8466 43.0644L32.057 57.6069C33.1573 59.8075 35.8447 60.6619 37.9832 59.4399L38.3508 59.1965C40.4893 57.9745 41.1624 55.1629 39.7566 53.1485L28.3288 35.9163Z" fill="#cf2900"/>
<path d="M45.0694 7.19923C44.4584 6.65028 43.5419 6.83168 43.1147 7.50473C43.1147 7.50473 37.6156 16.6074 36.0258 19.1761C35.7824 19.5436 35.2931 19.6654 34.9255 19.4816C34.558 19.2381 34.3766 18.7489 34.62 18.3813C36.0854 15.6939 41.1571 6.40444 41.1571 6.40444C41.5247 5.73136 41.2192 4.87693 40.4244 4.57143C39.8755 4.38765 39.2645 4.63348 38.959 5.12038L31.8701 16.7917C31.6267 17.1593 31.1374 17.281 30.7698 17.0972C30.4023 16.8538 30.2209 16.3645 30.4643 15.997C31.9298 13.3095 37.0015 4.02009 37.0015 4.02009C37.369 3.34701 37.0635 2.49258 36.2687 2.18708C35.7198 2.0033 35.1088 2.24913 34.8033 2.73603L27.2874 15.0777L26.3709 16.7269C25.3923 18.3761 25.0868 20.3308 25.5164 21.8583L26.4329 25.1568L7.5542 53.0789C6.21048 55.1554 6.82148 57.9049 8.95999 59.1269L9.32755 59.3703C11.4661 60.5923 14.2156 59.7976 15.2538 57.5373L29.9802 27.2304L33.2786 26.376C34.8682 25.9488 36.3336 24.7268 37.3122 23.0775L38.2287 21.4283L45.1336 8.78119C45.6181 8.23702 45.5585 7.56395 45.0692 7.19881L45.0694 7.19923Z" fill="#cf2900"/>
<path d="M14.4989 26.6094L15.4154 26.1201L17.3105 29.9079L20.5493 25.1415L14.1961 15.5494L4.48236 0.701452C4.05513 0.0283718 3.07656 -0.215052 2.40593 0.212173C0.329498 1.43418 -0.527371 3.94026 0.329498 6.13841L7.35602 24.1007C8.38947 26.9743 11.8121 28.1366 14.4993 26.6091L14.4989 26.6094Z" fill="#ff6600"/>
<path d="M26.3537 33.9414L22.8715 41.0896L30.0819 55.632C31.1822 57.8326 33.8696 58.687 36.0081 57.465L36.3757 57.2216C38.5142 55.9996 39.1873 53.188 37.7815 51.1736L26.3537 33.9414Z" fill="#ff6600"/>
<path d="M43.0942 5.22433C42.4832 4.67538 41.5666 4.85678 41.1394 5.52983C41.1394 5.52983 35.6404 14.6325 34.0506 17.2012C33.8071 17.5688 33.3179 17.6905 32.9503 17.5067C32.5827 17.2633 32.4013 16.774 32.6448 16.4064C34.1102 13.719 39.1819 4.42954 39.1819 4.42954C39.5495 3.75646 39.244 2.90203 38.4492 2.59653C37.9002 2.41275 37.2893 2.65858 36.9838 3.14548L29.8949 14.8168C29.6515 15.1844 29.1622 15.3061 28.7946 15.1223C28.4271 14.8789 28.2457 14.3896 28.4891 14.0221C29.9545 11.3346 35.0262 2.04519 35.0262 2.04519C35.3938 1.37211 35.0883 0.517682 34.2935 0.21218C33.7446 0.0284032 33.1336 0.274234 32.8281 0.761129L25.3122 13.1028L24.3956 14.752C23.4171 16.4012 23.1116 18.3559 23.5412 19.8834L24.4577 23.1819L5.57898 51.104C4.23526 53.1805 4.84626 55.93 6.98477 57.152L7.35233 57.3954C9.49083 58.6174 12.2403 57.8227 13.2786 55.5624L28.0049 25.2555L31.3034 24.4011C32.893 23.9739 34.3584 22.7519 35.337 21.1026L36.2535 19.4534L43.1584 6.80629C43.6429 6.26212 43.5832 5.58905 43.094 5.22391L43.0942 5.22433Z" fill="#ff6600"/>
</g>
<defs>
<clipPath id="clip0">
<rect width="46" height="60" fill="white" transform="translate(0 -0.000488281)"/>
</clipPath>
</defs>
</svg>
