<svg width="67" height="67" viewBox="0 0 67 67" fill="none" xmlns="http://www.w3.org/2000/svg">
<path d="M32.7437 38.6241C32.7437 46.1797 26.6195 52.3042 19.0636 52.3042C11.5077 52.3042 6.02473 46.392 5.38354 38.8627C4.40735 27.3755 13.1328 17.7577 23.7275 14.6984C20.1158 16.8812 17.598 20.6787 17.1767 25.0968C17.7943 25.0079 18.4199 24.9477 19.0611 24.9477C26.6193 24.945 32.7438 31.0692 32.7438 38.625L32.7437 38.6241Z" fill="#ff9900"/>
<path d="M61.6401 38.6241C61.6401 46.1797 55.5159 52.3042 47.9601 52.3042C40.4045 52.3042 34.9212 46.392 34.28 38.8627C33.3038 27.3755 42.0292 17.7577 52.6266 14.6984C49.0149 16.8812 46.4972 20.6787 46.0758 25.0968C46.6935 25.0079 47.3216 24.9477 47.9602 24.9477C55.5158 24.945 61.6403 31.0692 61.6403 38.625L61.6401 38.6241Z" fill="#ff6600"/>
</svg>
