<svg width="70" height="70" viewBox="0 0 70 70" fill="none" xmlns="http://www.w3.org/2000/svg">
<g clip-path="url(#clip0)">
<path d="M44.1043 23.7522C43.8154 20.126 40.4357 17.248 36.2811 17.248C32.1031 17.248 28.71 20.1467 28.4525 23.8012C17.4649 26.2241 9.07767 33.1154 7.24438 45.0552H65.6082C63.7568 33.1154 55.2324 26.108 44.1036 23.7522H44.1043ZM36.2811 19.2492C39.0411 19.2492 41.3362 21.0238 41.8168 23.3534C40.0705 23.1039 38.269 22.978 36.4282 22.978C34.4797 22.978 32.5836 23.1296 30.7428 23.4094C31.1971 21.0518 33.5002 19.2491 36.2811 19.2491L36.2811 19.2492Z" fill="#ff6600"/>
<path d="M67.7595 47.0474H5.01246C3.77562 47.0474 2.77246 47.9382 2.77246 49.0365C2.77246 50.1348 3.77562 51.0256 5.01246 51.0256H11.7352C11.7352 53.0147 13.7441 55.0062 16.2179 55.0062H56.5541C59.0278 55.0062 61.0368 53.0171 61.0368 51.0256H67.7595C68.9963 51.0256 69.9995 50.1348 69.9995 49.0365C69.9995 47.9382 68.9963 47.0474 67.7595 47.0474Z" fill="#ff6600"/>
<path d="M41.3318 21.9036C41.043 18.2774 37.6632 15.3994 33.5086 15.3994C29.3306 15.3994 25.9375 18.2981 25.68 21.9526C14.6924 24.3755 6.3052 31.2668 4.47192 43.2065H62.8357C60.9844 31.2668 52.4599 24.2593 41.3312 21.9036H41.3318ZM33.5086 17.4005C36.2686 17.4005 38.5638 19.1752 39.0444 21.5048C37.298 21.2553 35.4966 21.1294 33.6557 21.1294C31.7072 21.1294 29.8111 21.2809 27.9703 21.5608C28.4246 19.2032 30.7277 17.4005 33.5087 17.4005L33.5086 17.4005Z" fill="#ff6600"/>
<path d="M64.987 45.1987H2.24C1.00316 45.1987 0 46.0895 0 47.1878C0 48.2861 1.00316 49.1769 2.24 49.1769H8.9627C8.9627 51.1661 10.9716 53.1575 13.4454 53.1575H53.7816C56.2554 53.1575 58.2643 51.1684 58.2643 49.1769H64.987C66.2238 49.1769 67.227 48.2861 67.227 47.1878C67.227 46.0895 66.2238 45.1987 64.987 45.1987Z" fill="#ff9900"/>
</g>
<defs>
<clipPath id="clip0">
<rect width="69.9996" height="70" fill="white"/>
</clipPath>
</defs>
</svg>
