<svg width="60" height="60" viewBox="0 0 60 60" fill="none" xmlns="http://www.w3.org/2000/svg">
<path d="M12.2037 6C10.5031 6 9.09191 7.61157 9.09191 9.58924V13.1785H5.72688L2 23.9462H5.50973C5.54592 22.0044 7.10184 20.461 9.05574 20.461C11.0096 20.461 12.5655 22.0044 12.6017 23.9462H16.3647C16.3647 22.2234 17.6674 20.8559 19.3318 20.5688H20.4535C22.1541 20.8559 23.4205 22.2234 23.4567 23.9462H27.2197C27.2197 22.2234 28.5224 20.8559 30.1868 20.5688H31.3085C32.9729 20.8559 34.2755 22.2234 34.3117 23.9462H38.0748C38.0748 22.2234 39.3774 20.8559 41.0418 20.5688H42.1635C43.8279 20.8559 45.1305 22.2234 45.1667 23.9462H48.9298C48.9298 22.0044 50.5219 20.461 52.4758 20.461C54.4297 20.461 55.9855 22.0044 56.0217 23.9462H59.8571L56.4921 13.1785H52.5119V9.58924C52.5119 7.61157 51.137 6 49.4002 6H12.2037ZM48.966 27.216V42.0002H12.7102V27.216H10.5392C10.105 27.3919 9.67084 27.5032 9.20045 27.5032V56.3571H52.6205V27.5032C52.5843 27.5032 52.5119 27.5392 52.4758 27.5392C51.933 27.5392 51.4626 27.3919 50.9922 27.216H48.966Z" fill="#cf2900"/>
<path d="M10.2037 4C8.50306 4 7.09191 5.61157 7.09191 7.58924V11.1785H3.72688L0 21.9462H3.50973C3.54592 20.0044 5.10184 18.461 7.05574 18.461C9.00964 18.461 10.5655 20.0044 10.6017 21.9462H14.3647C14.3647 20.2234 15.6674 18.8559 17.3318 18.5688H18.4535C20.1541 18.8559 21.4205 20.2234 21.4567 21.9462H25.2197C25.2197 20.2234 26.5224 18.8559 28.1868 18.5688H29.3085C30.9729 18.8559 32.2755 20.2234 32.3117 21.9462H36.0748C36.0748 20.2234 37.3774 18.8559 39.0418 18.5688H40.1635C41.8279 18.8559 43.1305 20.2234 43.1667 21.9462H46.9298C46.9298 20.0044 48.5219 18.461 50.4758 18.461C52.4297 18.461 53.9855 20.0044 54.0217 21.9462H57.8571L54.4921 11.1785H50.5119V7.58924C50.5119 5.61157 49.137 4 47.4002 4H10.2037ZM46.966 25.216V40.0002H10.7102V25.216H8.53922C8.10502 25.3919 7.67084 25.5032 7.20045 25.5032V54.3571H50.6205V25.5032C50.5843 25.5032 50.5119 25.5392 50.4758 25.5392C49.933 25.5392 49.4626 25.3919 48.9922 25.216H46.966Z" fill="#ff6600"/>
</svg>
