<svg width="60" height="60" viewBox="0 0 60 60" fill="none" xmlns="http://www.w3.org/2000/svg">
<g clip-path="url(#clip0)">
<path d="M20.2061 25.8894C20.2061 34.6875 29.127 41.8182 40.1598 41.8182C40.4111 41.8182 40.6332 41.7473 40.8881 41.7473C46.4555 47.6718 56.7273 48.9134 56.7273 48.9134C52.9405 46.8203 52.8313 41.9247 52.977 38.0223C57.31 35.1132 60.1538 30.7851 60.1538 25.8894C60.1538 17.1267 51.1929 9.99951 40.1636 9.99951C29.1271 9.99597 20.2061 17.1267 20.2061 25.8894ZM2 32.8782C2 37.2063 4.91297 40.9668 9.28243 43.2018C9.31884 46.7494 8.8091 50.6518 5.53565 52.4611C5.53565 52.4611 16.2043 51.1839 21.6989 44.9401C24.2841 44.5144 26.5781 43.5921 28.5444 42.3504C26.0356 41.1797 23.8473 39.6187 22.0267 37.8804C21.1543 37.1534 20.1696 36.4257 20.1696 36.4257C20.1696 36.4257 18.6543 35.1534 17.5116 32.8782C16.3689 30.603 16.4593 29.3724 16.4593 28.4141C16.4593 27.4559 16.4593 26.489 16.4593 25.8504C16.4593 24.0056 16.8926 22.2672 17.5116 20.5643C8.88193 20.8517 2 26.2441 2 32.8782Z" fill="#cf2900"/>
<path d="M18.2061 23.8894C18.2061 32.6875 27.127 39.8182 38.1598 39.8182C38.4111 39.8182 38.6332 39.7473 38.8881 39.7473C44.4555 45.6718 54.7273 46.9134 54.7273 46.9134C50.9405 44.8203 50.8313 39.9247 50.977 36.0223C55.31 33.1132 58.1538 28.7851 58.1538 23.8894C58.1538 15.1267 49.1929 7.99951 38.1636 7.99951C27.1271 7.99597 18.2061 15.1267 18.2061 23.8894ZM0 30.8782C0 35.2063 2.91297 38.9668 7.28243 41.2018C7.31884 44.7494 6.8091 48.6518 3.53565 50.4611C3.53565 50.4611 14.2043 49.1839 19.6989 42.9401C22.2841 42.5144 24.5781 41.5921 26.5444 40.3504C24.0356 39.1797 21.8473 37.6187 20.0267 35.8804C18.5 34.4995 18.1705 34.1313 17.5 33.4995C16.7339 32.7776 15.5 29.9995 15.5 29.9995C15 27.4995 14.6778 25.6951 14.6778 25.6951C14.6013 25.092 14.4593 24.489 14.4593 23.8504C14.4593 22.0056 14.8926 20.2672 15.5116 18.5643C6.88193 18.8517 0 24.2441 0 30.8782Z" fill="#ff6600"/>
</g>
<defs>
<clipPath id="clip0">
<rect width="60" height="60" fill="white" transform="translate(0 -0.000488281)"/>
</clipPath>
</defs>
</svg>
