<svg width="58" height="70" viewBox="0 0 58 70" fill="none" xmlns="http://www.w3.org/2000/svg">
<path d="M54.7764 14.2476C39.8927 12.8181 31.572 6.12262 31.4427 5.99327C30.4016 5.14775 28.9087 5.14775 27.8677 5.99327C27.8016 6.05928 19.484 12.8183 4.53396 14.2476C3.10448 14.3771 2 15.6137 2 17.0431C2 54.8725 27.4793 66.3768 28.5837 66.8344C28.9747 66.9639 29.2997 67.0934 29.6882 67.0934C30.0792 67.0934 30.4677 67.0274 30.7927 66.8344C31.8971 66.3799 57.3764 54.8757 57.3764 17.0431C57.3129 15.6137 56.2058 14.3771 54.7764 14.2476ZM29.622 49.477C21.7557 49.477 15.4514 43.1064 15.4514 35.3063C15.4514 27.5089 21.7558 21.1383 29.622 21.1383C37.4882 21.1383 43.7927 27.5088 43.7927 35.3089C43.7927 43.1091 37.4882 49.477 29.622 49.477Z" fill="#ff9900"/>
<path d="M33.2633 30.4977L27.8678 35.8932L25.7223 33.7477C24.7473 32.7727 23.1223 32.7727 22.1473 33.7477C21.1723 34.7227 21.1723 36.3477 22.1473 37.3227L26.0473 41.2227C26.5678 41.7432 27.2178 41.9387 27.8678 41.9387C28.5178 41.9387 29.1678 41.6797 29.6883 41.2227L36.9046 34.0064C37.8796 33.0314 37.8796 31.4064 36.9046 30.4314C35.8636 29.5224 34.2386 29.5224 33.2636 30.4974L33.2633 30.4977Z" fill="#ff9900"/>
<path d="M52.7764 12.2476C37.8927 10.8181 29.572 4.12262 29.4427 3.99327C28.4016 3.14775 26.9087 3.14775 25.8677 3.99327C25.8016 4.05928 17.484 10.8183 2.53396 12.2476C1.10448 12.3771 0 13.6137 0 15.0431C0 52.8725 25.4793 64.3768 26.5837 64.8344C26.9747 64.9639 27.2997 65.0934 27.6882 65.0934C28.0792 65.0934 28.4677 65.0274 28.7927 64.8344C29.8971 64.3799 55.3764 52.8757 55.3764 15.0431C55.3129 13.6137 54.2058 12.3771 52.7764 12.2476ZM27.622 47.477C19.7557 47.477 13.4514 41.1064 13.4514 33.3063C13.4514 25.5089 19.7558 19.1383 27.622 19.1383C35.4882 19.1383 41.7927 25.5088 41.7927 33.3089C41.7927 41.1091 35.4882 47.477 27.622 47.477Z" fill="#ff6600"/>
<path d="M31.2633 28.4977L25.8678 33.8932L23.7223 31.7477C22.7473 30.7727 21.1223 30.7727 20.1473 31.7477C19.1723 32.7227 19.1723 34.3477 20.1473 35.3227L24.0473 39.2227C24.5678 39.7432 25.2178 39.9387 25.8678 39.9387C26.5178 39.9387 27.1678 39.6797 27.6883 39.2227L34.9046 32.0064C35.8796 31.0314 35.8796 29.4064 34.9046 28.4314C33.8636 27.5224 32.2386 27.5224 31.2636 28.4974L31.2633 28.4977Z" fill="#ff6600"/>
</svg>
